<?xml version="1.0" encoding="UTF-8"?>
<svg width="943px" height="75px" viewBox="0 0 943 75" version="1.1" xmlns="http://www.w3.org/2000/svg" xmlns:xlink="http://www.w3.org/1999/xlink">
    <!-- Generator: Sketch 48.2 (47327) - http://www.bohemiancoding.com/sketch -->
    <title>Group 4</title>
    <desc>Created with Sketch.</desc>
    <defs></defs>
    <g id="Artboard" stroke="none" stroke-width="1" fill="none" fill-rule="evenodd" transform="translate(-247.000000, -1805.000000)" opacity="0.264322917">
        <g id="Group-4" transform="translate(247.000000, 1805.000000)">
            <g id="AIG_logo" fill-rule="nonzero">
                <rect id="rect2986" stroke="#545454" stroke-width="0.36094946" fill="#FFFFFF" x="2" y="2" width="135" height="71"></rect>
                <g id="g6" transform="translate(69.000000, 37.500000) scale(-1, 1) rotate(-180.000000) translate(-69.000000, -37.500000) " fill="#545454">
                    <path d="M0,37.5 L0,0 L69,0 L138,0 L138,37.5 L138,75 L69,75 L0,75 L0,37.5 Z M132.821918,37.5 L132.821918,5.28634361 L68.9589041,5.28634361 L5.09589041,5.28634361 L5.09589041,37.5 L5.09589041,69.7136564 L68.9589041,69.7136564 L132.821918,69.7136564 L132.821918,37.5 Z" id="path8"></path>
                    <path d="M100.191781,59.2566079 C98.4246575,59.0996696 96.4109589,58.6949339 94.8657534,58.1910793 C91.6027397,57.1338106 89.1041096,55.597467 86.6712329,53.152533 C83.860274,50.3276432 82.0438356,47.0980176 81.0328767,43.1497797 C80.4739726,40.9278634 80.3506849,39.8623348 80.3506849,37.1696035 C80.3424658,34.7246696 80.4082192,34.0556167 80.7945205,32.155837 C81.4767123,28.8518722 83.0794521,25.5231278 85.2164384,22.9625551 C86.0547945,21.9631057 87.8630137,20.1954846 88.7917808,19.4686123 C91.8246575,17.0980176 95.3917808,15.6938326 99.4684932,15.280837 C100.939726,15.1238987 104.153425,15.2147577 105.452055,15.4377753 C108.575342,15.9829295 111.336986,17.1393172 113.638356,18.8821586 C116.90137,21.3518722 119.391781,24.9614537 120.575342,28.9427313 C121.232877,31.1646476 121.479452,32.907489 121.536986,35.9140969 L121.586301,38.0781938 L112.857534,38.0781938 L104.136986,38.0781938 L104.136986,35.063326 L104.136986,32.0484581 L109.39726,32.0484581 C113.547945,32.0484581 114.657534,32.0236784 114.657534,31.9493392 C114.657534,31.6932819 114.156164,29.8843612 113.926027,29.2979075 C113.005479,26.9768722 111.410959,24.8953744 109.520548,23.5490088 C108.723288,22.9873348 107.136986,22.1778634 106.273973,21.8970264 C102.887671,20.7984581 98.8931507,21.1205947 95.5479452,22.7643172 C91.3315068,24.8292952 88.3643836,28.8188326 87.4191781,33.6839207 C86.8191781,36.7731278 87.0575342,40.2753304 88.060274,43.1580396 C90,48.7417401 94.4958904,52.4008811 100.29863,53.1194934 C101.515068,53.2681718 104.194521,53.1773128 105.320548,52.9460352 C109.052055,52.1943833 112.282192,50.1128855 114.69863,46.8915198 L115.175342,46.2472467 L115.758904,46.8171806 C116.079452,47.1227974 117.09863,48.1057269 118.027397,48.9895374 C118.956164,49.873348 119.720548,50.6167401 119.736986,50.6415198 C119.786301,50.7571586 118.413699,52.3761013 117.526027,53.2433921 C115.339726,55.3827093 112.413699,57.1668502 109.479452,58.1497797 C107.09589,58.9509912 105.369863,59.2318282 102.575342,59.2648678 C101.465753,59.2731278 100.39726,59.2731278 100.191781,59.2566079 Z" id="path10"></path>
                    <path d="M36.6328767,57.8854626 C36.5260274,57.6459251 32.0465753,48.089207 26.6794521,36.657489 C21.3205479,25.217511 16.9315068,15.842511 16.9315068,15.8177313 C16.9315068,15.7929515 18.509589,15.7846916 20.4410959,15.7929515 L23.9424658,15.8177313 L26.2520548,20.9553965 L28.5616438,26.0930617 L37.5205479,26.1013216 L46.4876712,26.1013216 L48.7150685,20.9636564 L50.9424658,15.8177313 L54.4438356,15.7929515 C56.3671233,15.7846916 57.9452055,15.8012115 57.9452055,15.8259912 C57.9452055,15.8920705 58.2082192,15.3056167 44.5890411,45.8012115 C42.7068493,50.0302863 40.6931507,54.5236784 40.1342466,55.7957048 C39.5671233,57.0677313 39.0657534,58.1580396 39.0246575,58.215859 C38.9589041,58.2819383 38.630137,58.314978 37.890411,58.314978 L36.830137,58.314978 L36.6328767,57.8854626 Z M40.7260274,39.5236784 C42.3780822,35.7654185 43.7178082,32.6679515 43.7013699,32.6514317 C43.6849315,32.6349119 40.9068493,32.6349119 37.5369863,32.6431718 L31.4054795,32.6679515 L34.5369863,39.5484581 C36.2547945,43.3314978 37.6767123,46.4124449 37.6931507,46.3959251 C37.709589,46.3794053 39.0739726,43.2901982 40.7260274,39.5236784 Z" id="path12"></path>
                    <polygon id="path14" points="65.1780822 36.7979075 65.1780822 15.8590308 68.3835616 15.8590308 71.5890411 15.8590308 71.5890411 36.7979075 71.5890411 57.7367841 68.3835616 57.7367841 65.1780822 57.7367841"></polygon>
                </g>
            </g>
            <g id="British_Airways_Logo" transform="translate(392.000000, 21.000000)" fill="#545454">
                <path d="M5.99824698,19.2153007 C7.08655053,19.0179416 8.09334001,18.1352882 8.09334001,17.0158042 C8.09334001,14.9078479 6.21590769,14.1444497 4.29858477,14.1444497 L0,14.1444497 C0.353807351,14.3283709 0.50382953,14.7373646 0.50382953,15.1060461 L0.50382953,23.8528026 C0.50382953,24.2088869 0.353807351,24.6304778 0,24.8018018 L4.66539965,24.8018018 C6.4881994,24.8018018 9.07237999,24.1954505 9.07237999,21.7985949 C9.07151198,20.1248284 7.56262898,19.2027034 5.99824698,19.2153007 Z M2.77495823,15.1060461 C3.14264112,15.0665746 3.27791975,15.0665746 3.4817065,15.0665746 C4.78767076,15.0665746 5.80746777,15.4881656 5.80746777,16.9637354 C5.80746777,18.4393037 4.52925301,18.834861 3.20941321,18.834861 L2.77495823,18.834861 L2.77495823,15.1060461 Z M4.2439522,23.8788362 C3.76787374,23.8788362 3.25103826,23.8528026 2.77495823,23.7604217 L2.77495823,19.821652 C3.15564865,19.7956183 3.4418159,19.7956183 3.75399821,19.7956183 C5.14147811,19.7956183 6.47432543,20.1642999 6.47432543,21.7717206 C6.47432543,23.4051765 5.34613129,23.8788362 4.2439522,23.8788362 Z M25.6388808,14.1444497 L24.8775016,15.7115583 C25.3665876,15.4352577 26.0334452,15.369751 26.5910378,15.369751 L29.0260642,15.369751 L29.0260642,23.8528026 C29.0260642,24.2214841 28.8491605,24.6430751 28.4823456,24.8018018 L31.8417794,24.8018018 C31.4888401,24.6439157 31.2980609,24.2223248 31.2980609,23.8528026 L31.2980609,15.3437159 C32.2094608,15.3437159 33.2700164,15.3823483 33.909123,15.3966253 C34.439834,15.3966253 35.3512339,14.8037104 35.6634177,14 C35.0243096,14.1318524 34.3574519,14.1444497 33.7044698,14.1444497 L25.6388808,14.1444497 Z M39.4442974,14.1444497 L36.0571141,14.1444497 C36.3294074,14.2763021 36.6147082,14.6181094 36.6147082,15.1060461 L36.6147082,23.8528026 C36.6147082,24.3264623 36.3294074,24.6825466 36.0571141,24.8018018 L39.4442974,24.8018018 C39.1581302,24.6825466 38.8867049,24.3273014 38.8867049,23.8528026 L38.8867049,15.1060461 C38.8867049,14.61895 39.1589982,14.2763021 39.4442974,14.1444497 Z M14.8122077,19.3605895 C16.4173467,19.3605895 17.8585912,18.4913725 17.8585912,16.8050087 C17.8585912,14.790274 15.695858,14.1444497 13.9684463,14.1444497 L9.98291343,14.1444497 C10.3367208,14.3283709 10.4997489,14.7373646 10.4997489,15.1060461 L10.4997489,23.8528026 C10.4997489,24.2214841 10.3367208,24.6304778 9.98291343,24.8018018 L13.2885827,24.8018018 C12.9347753,24.6439157 12.7717456,24.2088869 12.7717456,23.8528026 L12.7717456,19.7821805 C14.1999826,19.7956183 14.7575751,21.2317151 15.3966832,22.2722561 C15.8042552,22.9180789 16.8387941,24.5506957 17.5862979,24.7614912 C17.9938698,24.8807448 18.4560743,24.8673085 18.8783882,24.8673085 C19.5851364,24.8673085 20.2927496,24.7875248 20.9726148,24.5901672 C18.4439348,24.5767293 17.0972119,19.3740274 14.8122077,19.3605895 Z M13.2885827,18.8340204 C13.111679,18.8340204 12.9486493,18.820584 12.7717456,18.8079868 L12.7717456,15.1186434 C12.9625248,15.0926098 13.1385605,15.0657355 13.3293397,15.0657355 C14.5399144,15.0657355 15.4374403,15.5393952 15.4374403,16.8696747 C15.4374403,18.1755988 14.5260404,18.8340204 13.2885827,18.8340204 Z M24.5236942,14.1444497 L21.1373773,14.1444497 C21.4088042,14.2763021 21.6949714,14.6181094 21.6949714,15.1060461 L21.6949714,23.8528026 C21.6949714,24.3264623 21.4096706,24.6825466 21.1373773,24.8018018 L24.5236942,24.8018018 C24.2383934,24.6825466 23.9661017,24.3273014 23.9661017,23.8528026 L23.9661017,15.1060461 C23.9661017,14.61895 24.2383934,14.2763021 24.5236942,14.1444497 Z M59.8740617,14.1444497 L56.6091494,14.1444497 C56.8545597,14.2628642 57.1129774,14.6181094 57.1129774,15.1060461 L57.1129774,18.6895707 C56.5146278,18.7424801 55.698616,18.7819516 54.7733406,18.7819516 C53.8211837,18.7819516 53.0043054,18.7550773 52.4068223,18.6895707 L52.4068223,15.1060461 C52.4068223,14.61895 52.6513645,14.2637049 52.8967747,14.1444497 L49.6318641,14.1444497 C49.8764063,14.2628642 50.134824,14.6181094 50.134824,15.1060461 L50.134824,23.8528026 C50.134824,24.3264623 49.8764063,24.6959845 49.6318641,24.8018018 L52.8967747,24.8018018 C52.6513645,24.6825466 52.4068223,24.3273014 52.4068223,23.8528026 L52.4068223,19.8879977 C53.0051718,19.821652 53.8350576,19.7956183 54.7733406,19.7956183 C55.6977496,19.7956183 56.5137598,19.821652 57.1129774,19.8879977 L57.1129774,23.8528026 C57.1129774,24.3264623 56.8545597,24.6959845 56.6091494,24.8018018 L59.8740617,24.8018018 C59.6286514,24.6825466 59.3841077,24.3273014 59.3841077,23.8528026 L59.3841077,15.1060461 C59.3841077,14.61895 59.6295179,14.2628642 59.8740617,14.1444497 Z M43.3613254,16.160025 C43.3613254,15.2773701 44.1912112,14.8952507 44.9933475,14.8952507 C46.000137,14.8952507 47.0884405,15.5276371 47.5228955,16.4111311 L47.4006244,14.4215909 C46.6938761,14.1058173 45.5778231,14.0008391 44.8025683,14.0008391 C43.0751581,14.0008391 41.1023362,14.6592607 41.1023362,16.660559 C41.1023362,19.9014356 46.0400276,20.3624981 46.0400276,22.3906707 C46.0400276,23.5504653 45.2240157,24.0115293 44.1218366,24.0115293 C42.6805937,24.0115293 41.5237821,23.0490922 40.9661895,21.8120328 C40.897683,22.2470616 40.8577924,22.6812498 40.8577924,23.1162771 C40.8577924,23.4849602 40.8846755,23.8536417 40.9393065,24.2097275 C41.8368324,24.8026424 43.2789433,25 44.3394973,25 C46.3660838,25 48.3787964,24.0770344 48.3787964,21.8515043 C48.3805308,18.7819516 43.3613254,18.2671406 43.3613254,16.160025 Z M119.316261,14.1444497 C119.479296,14.2494279 119.547809,14.3418073 119.547809,14.500534 C119.547809,14.61895 119.412528,14.8557791 119.207871,15.1984271 C119.207871,15.1984271 117.548105,17.9908385 117.371202,18.3066121 L115.276976,15.0926098 C114.62399,14.1049782 114.094143,14.0125973 113.032721,14.0125973 C112.39362,14.0125973 111.441453,14.1839212 111.128404,14.3031764 C112.270479,14.3031764 113.223494,15.8308135 113.427287,16.160025 L115.685412,19.6772023 L115.685412,23.8528026 C115.685412,24.1828533 115.535382,24.6304778 115.209329,24.8018018 L118.445628,24.8018018 C118.10569,24.6439157 117.95654,24.1954505 117.95654,23.8528026 L117.95654,19.6906402 L120.568472,15.2639337 C120.813008,14.8423428 121.19457,14.3552452 121.656768,14.1444497 L119.316261,14.1444497 Z M104.572574,14.1444497 L102.422841,14.1444497 C102.558121,14.2494279 102.613614,14.3283709 102.613614,14.4602234 C102.613614,14.5660406 102.58674,14.6315473 102.532112,14.8028713 L100.36851,21.0729884 L97.5129069,14.1444497 L94.9148461,21.3358527 L92.4798212,14.9607573 C92.4390642,14.8415022 92.3852981,14.6970525 92.3852981,14.5920758 C92.3852981,14.3678424 92.4798212,14.2494279 92.6168343,14.1444497 L89.3657976,14.1444497 C89.774236,14.3552452 90.0456613,14.750801 90.2095574,15.1589555 L93.9496816,24.8009627 L94.9824862,24.8009627 L97.1590996,18.8340204 L98.6688506,22.5351204 C98.8596235,23.0087801 99.3755847,24.3004272 99.7163877,24.6036036 C99.8655528,24.7085818 100.136978,24.8009627 100.410133,24.8009627 L103.755688,15.1849907 C103.892698,14.790274 104.178008,14.3418073 104.572574,14.1444497 Z M123.981659,16.160025 C123.981659,15.2773701 124.81155,14.8952507 125.614551,14.8952507 C126.62048,14.8952507 127.708776,15.5276371 128.144101,16.4111311 L128.021841,14.4215909 C127.314226,14.1058173 126.19816,14.0008391 125.423778,14.0008391 C123.696365,14.0008391 121.723551,14.6592607 121.723551,16.660559 C121.723551,19.9014356 126.661239,20.3624981 126.661239,22.3906707 C126.661239,23.5504653 125.845218,24.0115293 124.743053,24.0115293 C123.300934,24.0115293 122.14499,23.0490922 121.586525,21.8120328 C121.518893,22.2470616 121.478134,22.6812498 121.478134,23.1162771 C121.478134,23.4849602 121.505024,23.8536417 121.559652,24.2097275 C122.457174,24.8026424 123.899293,25 124.960699,25 C127.001161,25 129,24.0770344 129,21.8515043 C129.000881,18.7819516 123.981659,18.2671406 123.981659,16.160025 Z M113.032721,23.9712172 L109.332494,14.1444497 L106.476011,14.1444497 C106.707558,14.2628642 106.884462,14.500534 106.884462,14.750801 C106.884462,14.8037104 106.870577,14.8423428 106.857572,14.8818143 L103.211973,23.984655 C103.076693,24.3138651 102.791398,24.6430751 102.464464,24.8018018 L104.68183,24.8018018 C104.559554,24.7488939 104.423409,24.6699493 104.423409,24.5112227 C104.423409,24.4457175 104.464168,24.3264623 104.600313,24.0106887 C104.600313,24.0106887 105.565484,21.6398682 105.661735,21.4030391 C106.313857,21.3366933 106.980713,21.3232554 107.632835,21.3232554 C108.326565,21.3232554 109.034179,21.3232554 109.71404,21.4030391 C109.822446,21.6793412 110.719969,24.0635981 110.719969,24.0635981 C110.788482,24.2609557 110.829225,24.3667745 110.829225,24.4322796 C110.829225,24.6170415 110.733839,24.6951439 110.625448,24.8009627 L113.781095,24.8009627 C113.50794,24.656513 113.181871,24.3667745 113.032721,23.9712172 Z M107.605081,20.3885332 C107.102124,20.3885332 106.585282,20.3750954 106.081445,20.3221875 L107.755095,16.1734614 L109.305605,20.3221875 C108.747139,20.3885332 108.17655,20.3885332 107.605081,20.3885332 Z M74.3628123,23.9712172 L70.6625787,14.1444497 L67.8069728,14.1444497 C68.0385091,14.2628642 68.2145448,14.500534 68.2145448,14.750801 C68.2145448,14.8037104 68.2006708,14.8423428 68.1876633,14.8818143 L64.5420606,23.984655 C64.405914,24.3138651 64.1206147,24.6430751 63.7936889,24.8018018 L66.0110546,24.8018018 C65.8887835,24.7488939 65.7526368,24.6699493 65.7526368,24.5112227 C65.7526368,24.4457175 65.7933939,24.3264623 65.9295405,24.0106887 C65.9295405,24.0106887 66.895573,21.6398682 66.9909626,21.4030391 C67.6439447,21.3366933 68.3099344,21.3232554 68.9629165,21.3232554 C69.6566557,21.3232554 70.3642704,21.3232554 71.0441356,21.4030391 C71.1525327,21.6793412 72.050925,24.0635981 72.050925,24.0635981 C72.1324391,24.2609557 72.1593222,24.3667745 72.1593222,24.4322796 C72.1593222,24.6170415 72.0639326,24.6951439 71.9555354,24.8009627 L75.1111841,24.8009627 C74.8388908,24.656513 74.5128329,24.3667745 74.3628123,23.9712172 Z M68.9360334,20.3885332 C68.4322055,20.3885332 67.91537,20.3750954 67.4124085,20.3221875 L69.0851876,16.1734614 L70.6356956,20.3221875 C70.0781031,20.3885332 69.5075015,20.3885332 68.9360334,20.3885332 Z M79.0559599,14.1444497 L75.6687766,14.1444497 C75.9410699,14.2763021 76.2272371,14.6181094 76.2272371,15.1060461 L76.2272371,23.8528026 C76.2272371,24.3264623 75.9410699,24.6825466 75.6687766,24.8018018 L79.0559599,24.8018018 C78.7697927,24.6825466 78.4983674,24.3273014 78.4983674,23.8528026 L78.4983674,15.1060461 C78.4974994,14.61895 78.7697927,14.2763021 79.0559599,14.1444497 Z M85.9656068,19.3605895 C87.1623075,19.3605895 88.739697,18.4913725 88.739697,16.8050087 C88.739697,14.790274 86.5769639,14.1444497 84.8495522,14.1444497 L80.8648857,14.1444497 C81.2186931,14.3283709 81.3817212,14.7373646 81.3817212,15.1060461 L81.3817212,23.8528026 C81.3817212,24.2214841 81.2186931,24.6304778 80.8648857,24.8018018 L84.170555,24.8018018 C83.8167476,24.6439157 83.6528515,24.2088869 83.6528515,23.8528026 L83.6528515,19.7821805 C85.0810884,19.7821805 85.9109742,21.2317151 86.5500824,22.2722561 C86.9585207,22.9180789 87.9921933,24.5506957 88.739697,24.7614912 C89.1481369,24.8807448 89.6103398,24.8673085 90.0317873,24.8673085 C90.738534,24.8673085 91.4461487,24.7875248 92.1268803,24.5901672 C89.7733696,24.5901672 88.3451326,19.4924419 85.9656068,19.3605895 Z M84.1696885,18.8340204 C83.9927849,18.8340204 83.8288887,18.820584 83.651985,18.8079868 L83.651985,15.1186434 C83.8427627,15.0926098 84.0196663,15.0657355 84.2104456,15.0657355 C85.4210202,15.0657355 86.3185461,15.5393952 86.3185461,16.8696747 C86.3185461,18.1755988 85.4071463,18.8340204 84.1696885,18.8340204 Z" id="path3362"></path>
                <path d="M158.462049,6.20856117 C156.544666,8.09455677 152.509961,9.77109685 150.592579,10.5041911 C147.86947,11.5523647 146.65957,11.9721701 145.145487,12.4958089 C143.431466,13.0194476 140,14.1723489 140,14.1723489 C147.061151,16.3725278 152.105802,17 152.105802,17 C152.105802,17 154.425625,16.2704863 158.158711,14.1723489 C160.176055,13.1250714 161.084336,12.4958089 161.790115,11.7627146 C162.093454,11.553259 162.798358,10.8192688 162.899179,9.87671895 C162.899179,9.7719912 163,9.66726344 163,9.45691195 C163,9.45691195 163,9.35308017 163,9.24835241 C162.899179,9.14362465 162.899179,9.0388969 162.899179,9.0388969 C162.899179,9.0388969 162.899179,8.82944138 162.798358,8.6190899 C162.798358,8.51436214 162.597575,7.99072335 162.193415,7.67654008 C161.890936,7.46619022 161.487636,6.94254981 159.974413,6.41891103 C159.470292,6.20945551 158.561151,6 158.561151,6 L158.462049,6.20856117 Z" id="path3364"></path>
                <path d="M162.998262,9 C162.998262,9 162.998262,8.80040804 162.897246,8.70061205 C162.897246,8.50102009 162.79623,8.40122411 162.696076,8.20163215 C162.59506,8.10183616 162.392151,7.9022442 162.190119,7.60285625 C161.988933,7.5022065 161.78604,7.30346831 161.584008,7.1038748 C160.57208,6.50424668 159.360719,6.20485873 158.248651,6.00526677 C156.531318,5.80567481 154.509216,5.80567481 154.308029,5.80567481 C153.701057,5.80567481 149.557542,5.80567481 148.54649,5.90547079 C143.897034,6.006119 138.136357,6.006119 136.620194,6.006119 C121.157371,6.006119 114.38392,5.70587882 106.905909,4.20893755 C100.538259,3.01053199 97,1.81298021 97,1.81298021 C102.660517,1.61338825 135.508127,0.215390726 141.471713,0.115594744 C145.413181,0.015798762 148.142427,-0.0848494498 150.3657,0.115594744 C151.578799,0.115594744 152.58899,0.216244502 153.903966,0.515632448 C155.117049,0.714370635 156.228255,1.01461236 156.836104,1.21420432 C158.149358,1.71318423 159.362441,2.41260988 159.867536,3.21182996 C159.867536,3.21182996 160.069584,3.31162594 160.271616,3.61016166 C160.474524,4.01019936 160.777572,4.40938329 160.878588,4.50917927 C161.687607,5.80652704 162.091687,6.50595269 162.191841,6.80534063 C162.393873,7.10472858 162.494905,7.4049703 162.596782,7.70435824 C162.797953,7.90395021 162.797953,8.10354217 162.797953,8.20333815 C162.898968,8.5027261 162.898968,8.80296627 163,8.90276225 L163,9 L162.998262,9 Z" id="path3366"></path>
            </g>
            <g id="coca-cola-logo" transform="translate(780.000000, 13.000000)" fill="#545454" fill-rule="nonzero">
                <path d="M136.192739,46.0493883 C136.190294,46.0493883 135.688656,46.5018748 135.688656,46.5018748 C134.971856,47.1501984 134.234273,47.844286 133.343876,47.4971392 C133.097948,47.4066418 132.924962,47.0751619 132.883397,46.8178939 C132.842891,44.9621836 133.668861,43.2426934 134.469811,41.5684724 L134.675193,41.1306221 C136.979222,37.2384542 139.65734,32.6523224 143.590571,29.4694555 C144.253377,28.985635 144.972663,28.5790774 145.731762,28.8961684 C145.906377,29.0617022 146.109722,29.348655 146.109722,29.6349893 C146.109722,29.7258989 146.030096,29.9670877 145.984007,30.0421242 C144.885539,31.8382176 143.839312,33.72386 142.821937,35.5339713 C140.833724,39.109749 138.771181,42.8055027 136.192657,46.0498005 L136.192739,46.0493883 Z M114.88108,36.8767948 C114.730507,36.982959 112.073376,36.0773674 111.55992,33.5882171 C111.124298,31.4451418 112.582919,29.770591 113.994188,28.9264716 C114.599943,28.4434757 115.512386,28.2779419 116.181671,28.518306 C116.802911,28.941314 116.97121,29.6962142 116.97121,30.5096593 C116.97121,31.0085283 116.905847,31.5210028 116.848144,31.9885379 C116.848144,31.9885379 116.837142,32.0794476 116.835349,32.0944961 C116.392595,33.7685521 115.715119,35.4132532 114.881121,36.8768772 L114.88108,36.8767948 Z M104.730964,47.0001254 C104.459974,46.5927844 104.370119,46.147348 104.361154,45.6657951 C104.309156,42.7076254 107.454926,37.4101311 109.675417,34.5241119 L109.680307,34.5241119 C110.610884,36.5855542 112.718007,37.9106493 113.990072,38.4690528 C112.410178,42.0297408 106.991757,49.6552631 104.731575,47.0001254 L104.730964,47.0001254 Z M143.080376,47.5253809 C142.554492,47.8873702 141.815646,47.6090755 142.091934,46.7795511 C142.780005,44.6673974 145.515622,40.3631059 145.515622,40.3631059 L153.135137,26.6899717 L147.915822,26.6899717 C147.667855,27.1022601 147.137285,28.0490393 147.137285,28.0490393 C146.895839,27.6421106 146.173782,26.7371375 145.876467,26.5417127 C144.601386,25.7264123 142.730534,26.111902 141.439968,26.8509291 C135.828797,30.1705108 131.734846,36.7293604 128.505782,41.8433864 C128.505782,41.8433864 125.107033,47.5288441 123.220289,47.9516872 C121.747405,48.0724877 121.899323,46.0650552 121.963138,45.5973552 C122.532625,42.2174145 123.85518,39.0042032 125.187719,36.0924572 C127.897786,34.1916425 130.990743,31.7024098 133.801545,28.9718233 C139.901476,23.0723879 145.043772,16.3887798 145.79521,14.895471 C145.79521,14.895471 144.981628,15.0616232 144.020937,15.0915142 C139.328117,21.7145159 129.724872,31.3406266 126.813661,32.7729167 C128.103412,29.6344121 136.436467,14.6536638 143.527857,7.48809051 L144.643766,6.40146306 C146.369139,4.69665031 148.157105,2.94665075 149.550281,2.65994536 C149.69739,2.64493806 149.886879,2.65994536 150.050492,3.00750452 C150.112677,4.33490843 149.624243,5.3156602 149.063924,6.43197241 L148.278664,8.06158375 C148.278664,8.06158375 149.390987,7.85028592 150.121398,7.60827259 C150.969007,5.99474051 151.907734,4.18380471 151.561681,2.02687644 C151.446154,1.33279707 150.94961,0.804853465 150.3007,0.684052949 C148.185345,0.276711957 145.87993,1.8603119 144.024971,3.1431062 L143.94999,3.18804564 C134.41439,10.7465298 126.362106,21.639603 119.322062,36.5149704 C118.811867,36.9066444 116.840524,37.3748392 116.505392,37.1482455 C117.200595,35.7002884 118.075914,33.7536273 118.513981,31.641556 C118.589777,31.0379657 118.660275,30.4196979 118.660275,29.816355 C118.660275,28.5178113 118.352202,27.2962831 117.202388,26.4516689 C115.854364,25.7726299 114.188323,26.0896797 113.064997,26.6023604 C108.032727,28.7145141 104.27187,33.9349105 101.557891,38.2338422 C100.098211,40.9652532 98.6427685,43.8906047 98.2398283,47.2406957 C97.9560016,49.865324 98.5338426,51.555047 100.008804,52.4002383 C101.525698,53.1842048 103.434937,52.3693167 104.184908,51.9774365 C109.28295,49.2619399 112.845189,43.8159392 115.652893,38.836979 C115.76455,38.8221366 117.297581,38.7771972 118.457175,38.4749897 C118.47266,38.4749897 118.47918,38.4749897 118.504853,38.4908216 C118.43843,38.7161372 117.839195,40.5271143 117.839195,40.5271143 C116.059623,45.8070451 115.236709,49.3979126 116.917583,51.525321 C119.319576,54.5277704 123.296247,51.4201875 126.531424,47.3158559 C125.837036,52.2340449 128.356391,53.0037874 130.276796,52.6269558 C132.482861,52.0237778 134.941089,49.6395136 136.081938,48.417903 C135.715592,49.8508527 135.815227,52.4158641 137.821982,52.6720601 C139.197553,52.9293281 140.226909,52.1723665 141.417962,51.5234245 C145.6904,49.1696697 150.805231,41.3267065 152.13288,39.05912 L150.391859,39.05912 C148.504299,41.9453041 146.102306,45.7295349 143.080824,47.5258757 L143.080376,47.5253809 Z M77.2594708,18.2380584 L82.149359,18.2380584 L84.909141,13.7028854 L80.0182747,13.7028854 L77.2594708,18.2380584 Z M155.370705,6.19016523 C151.642204,8.33282832 147.77727,9.72042634 143.098306,9.23780147 C141.801628,10.7166802 140.539179,12.2402509 139.37551,13.8090909 C145.942197,15.4988139 152.903837,11.7422889 156.786538,8.16717082 C160.893773,4.56129601 163,0.0205983707 163,0.0205983707 C163,0.0205983707 159.921305,3.58070916 155.370542,6.19024769 L155.370705,6.19016523 Z M114.253524,5.04400333 C113.476006,14.0656993 106.544521,19.3619567 104.82958,19.7833155 C103.790281,19.9942011 102.016822,19.5268721 103.599895,15.7405799 C105.931471,10.6407366 109.911973,6.31154295 114.182781,4.09343108 C114.286695,4.47067501 114.284046,4.71145147 114.253442,5.04375596 L114.253524,5.04400333 Z M100.747202,27.7792378 C100.250658,26.69327 99.0717075,25.9991411 97.8154533,26.074425 C93.7356836,26.4518751 89.7452387,29.8462047 87.6498517,34.7192893 C86.5504052,37.2239416 85.9503959,39.2905787 85.5569098,42.5793213 C86.8254706,41.1012672 89.4131227,38.6724759 92.3495985,37.3447422 C92.3495985,37.3447422 92.7491565,34.191725 94.7866371,31.3855249 C95.5576352,30.2235311 97.1006093,28.3528959 98.8331545,28.8506105 C100.346788,29.3639097 99.8148323,33.6033069 97.8029837,37.7057419 C96.3143706,40.7235285 94.0364217,43.7416449 91.7315775,45.8230419 C89.6938932,47.5732064 86.678932,49.6851952 84.0411569,48.0559962 C82.379762,47.0607318 81.5323976,44.9782629 81.7114549,42.2928632 C82.5052733,34.6744323 85.9330362,28.1868261 90.8379207,20.7944942 C95.8958637,13.9300564 101.471337,6.88470636 108.982456,3.1271094 C110.514509,2.34273062 111.933194,2.16169476 113.159538,2.64452577 C113.159538,2.64452577 106.108899,6.56703811 102.747804,13.8241394 C101.89286,15.6650074 100.703762,18.1535805 101.901173,20.3564377 C102.526896,21.5027645 103.637956,21.593468 104.532428,21.5331089 C108.652133,20.5673645 111.313706,16.6751141 113.488557,13.1150033 C114.749375,10.4145139 115.870012,7.72903188 115.870012,4.74142484 C115.870012,4.37943558 115.85143,3.89689317 115.821111,3.53440917 C117.789357,2.47878581 121.825279,4.34909115 121.825279,4.34909115 C124.979199,5.40553908 131.695033,10.6107633 133.959941,11.6060276 C135.06493,10.3088032 136.880769,8.34771193 137.903116,7.36687771 L136.42306,6.44648496 C134.053423,4.98302587 131.548657,3.59493311 129.083256,2.22217748 C123.484311,-0.870150831 118.92662,0.215816953 116.607105,1.06076091 C115.695518,1.39244697 114.862335,1.67919359 114.862335,1.67919359 C113.141037,-0.221621095 110.31801,-0.0410387529 108.237946,0.472260371 C100.75739,2.64460823 93.8122944,7.93979374 86.3663763,17.1278893 C80.8919638,24.3243842 77.4958232,30.5404572 75.6865043,36.6802569 C74.2913726,40.813696 73.8674052,46.8934664 77.2725109,50.4993412 C80.1675843,53.5609953 84.006519,52.8978705 86.7176449,51.796813 C92.5912486,48.8699772 97.8702219,42.5632008 100.50107,35.306924 C101.135757,33.1498308 101.840292,30.1023595 100.747406,27.7787018 L100.747202,27.7792378 Z M35.6402442,20.7795693 C35.6304641,20.8096664 34.6426738,23.1025674 34.6426738,23.1025674 C34.4998435,23.2231618 34.2740862,23.1630089 34.015321,23.1025674 L33.5719563,23.0267063 C32.1797587,22.5894744 31.1295387,21.6539507 30.8058173,20.5377209 C30.3591926,18.3651257 32.1936139,16.6603954 33.0018578,16.0421276 C33.7773385,15.4985253 34.9829806,15.2119436 35.6830729,15.7704295 C36.1148237,16.2835225 36.2784367,16.9471008 36.2784367,17.671739 C36.2786404,18.6521609 35.9795323,19.7533834 35.640285,20.7795693 L35.6402442,20.7795693 Z M33.5183695,25.1391074 C33.5183695,25.1391074 33.473544,25.2753688 33.4513758,25.3198959 C33.4456707,25.3198959 31.2060272,29.0156496 31.2060272,29.0156496 C29.8543356,30.8414278 28.1666974,33.1352358 26.0569662,34.236046 C25.4316509,34.4473438 24.5672936,34.583399 24.126863,34.0255727 C23.1930262,32.8938409 23.6743295,31.3249185 24.0653299,30.0577087 L24.2036776,29.6050159 C25.3247218,26.5276949 27.103478,23.8115386 28.8347191,21.2916316 C28.8563168,21.2767892 28.9048099,21.2617819 28.9223325,21.2617819 C28.9264076,21.2768717 28.9333352,21.2768717 28.9363507,21.3071336 C30.0227571,23.4188751 32.0598709,24.3991321 33.5833664,24.852402 C33.592576,24.852402 33.6023561,24.8674093 33.6023561,24.8977538 C33.6025599,24.9426932 33.5776614,25.0035058 33.5184102,25.1387364 L33.5183695,25.1391074 Z M61.5351033,22.7103162 C62.5369118,21.3075459 65.4528494,17.5507735 66.1636999,16.9172511 C68.5545275,14.789183 69.510125,15.7255726 69.5928483,16.3889035 C67.3615179,20.4319689 64.7280623,25.0634525 62.2520664,29.2275659 C62.2569564,29.2127235 61.477197,30.4192444 61.477197,30.4192444 C60.3836185,32.1086376 59.282542,33.5569245 57.4865076,34.5676908 C57.2303912,34.6435519 56.8082168,34.6738551 56.5272426,34.4619388 C56.189014,34.2355925 56.0555564,33.8583485 56.093658,33.4658499 C56.2012391,32.1687905 57.5067198,28.201751 61.5350626,22.7100688 L61.5351033,22.7103162 Z M36.7058679,13.5377227 C33.614948,11.4860104 27.4025454,15.4085227 22.4269182,22.1364106 C17.8767254,28.1716539 15.9119028,35.1861647 18.0501593,38.4300503 C21.2309746,42.2468519 27.1358746,36.6951405 29.6469159,33.7235302 L29.9708818,33.3761772 C31.6784877,31.5204669 32.9978235,29.2875126 34.2747789,27.1450144 C34.2747789,27.1450144 35.4483912,25.1837583 35.5044638,25.0930548 C36.2298214,24.9578242 37.1035106,24.7465264 38.0880409,24.4597797 C38.0740228,24.5047192 34.3212344,30.8865321 34.7041254,34.0545566 C34.8233204,35.0209607 34.7322432,38.5511394 38.138979,39.6220999 C42.6793916,40.3920486 46.3053646,36.831072 49.5034581,33.6628826 C49.5034581,33.6628826 50.0484951,33.1353595 50.3567721,32.8341828 C50.2787758,33.1502019 50.1770627,33.5717668 50.1770627,33.5717668 C48.8477838,38.248767 50.6395801,39.2300136 51.7604613,39.5921677 C55.1477998,40.5884216 59.1945618,35.6094613 59.2076019,35.6094613 C59.1026696,37.1778066 58.7958189,38.4752783 60.4299517,39.5163067 C61.9723554,40.0749575 63.5333413,39.2233757 64.7197492,38.4237423 C68.9934911,35.3762709 72.4364132,30.6067532 75.2170593,26.4838687 L73.4431932,26.4838687 C73.4222475,26.4838687 69.0659453,32.871866 66.2372952,34.2602886 C66.2332201,34.2602886 65.7181347,34.5276576 65.4214716,34.3161124 C65.0543102,33.9990626 65.199178,33.3402256 65.4255466,32.8735151 C65.4398093,32.8430058 76.3474762,13.7029266 76.3474762,13.7029266 L71.1974372,13.7029266 C71.1974372,13.7029266 70.6348775,14.6238141 70.5890333,14.6841732 C70.5543954,14.6540761 70.4718758,14.4957573 70.4146215,14.4198963 C67.223863,9.95440003 59.9979972,16.8231257 54.5578152,24.7881263 C52.4634062,27.8510172 49.7969427,31.2996452 47.0320262,33.7892078 C47.0320262,33.7892078 42.9359563,37.5880336 41.1858069,34.858684 C40.5460252,33.7118625 40.7428498,32.0353327 41.1036948,30.9343576 C43.1413792,25.0656789 46.6526805,19.7399015 50.6482599,16.5257008 C51.7762317,15.6361472 53.0021676,15.3788792 53.610653,15.7561644 C54.1903278,16.1037235 54.28385,16.9629327 53.9170962,17.5514332 C52.9865194,17.5213361 52.2410311,17.8074643 51.6349093,18.4411517 C50.4409217,19.7085264 50.0260824,20.9307143 50.4057134,22.0775358 C52.2499147,24.7326735 55.9278038,19.4824274 55.7498874,16.2840585 C55.6863167,15.1372369 55.0815804,14.0512692 54.1792029,13.5227154 C52.8342758,12.7084457 50.7824103,12.9193312 49.4545984,13.5684794 C47.6770647,14.2471062 44.8632477,16.615456 43.220761,18.4564064 C41.1530843,20.7650568 37.6069821,23.329491 36.4979185,23.0422908 C36.8612086,22.0612092 39.8565687,15.8608856 36.7055419,13.5382174 L36.7058679,13.5377227 Z M62.5921694,47.1054239 C56.5268758,43.1524022 48.2952895,42.4587681 35.0204302,46.1850312 C20.8686218,49.5497172 16.1497223,51.706563 9.95321234,47.3767097 C7.57257237,45.2497136 6.71901392,41.8249983 7.35643211,36.8922143 C8.83469461,28.8505281 12.8293775,21.1114615 19.9254939,12.527616 C23.8862725,8.06211972 27.5600865,4.22989856 32.4114249,2.69123805 C36.1294939,1.72582341 35.7818927,4.68217899 35.332008,5.10493957 C34.8572655,5.10493957 34.0597797,5.18063573 33.4434702,5.5875232 C32.9432587,5.98002181 31.5701731,7.24739651 31.4964148,8.95220926 C31.3900562,11.5619952 34.0596167,11.0187639 35.2110607,9.58589661 C36.4521558,7.97121012 38.286251,4.87896427 36.8435229,1.99706798 C36.2387865,0.971294314 35.1939456,0.262405548 33.896615,0.0209694303 C29.4544109,-0.235886276 25.31702,1.90652944 21.4987049,4.2751266 C13.1505724,10.1436404 6.47076232,18.2756179 2.69156768,27.1769256 C0.512397828,32.5475599 -1.45829284,40.2406975 1.49578714,46.5025345 C3.78090811,50.8472302 8.52507286,53.155056 14.1854702,52.6724312 C18.1552139,52.250454 22.9549622,50.9523638 26.1840261,50.1686034 C29.4124379,49.3836062 45.9382033,43.6361403 51.3686052,53.6392476 C51.3686052,53.6392476 53.1742566,50.0929073 57.6867145,50.0172935 C61.3966334,49.6709712 66.7487945,51.103921 70.6461654,54 C69.3476938,52.0243137 65.6663002,49.1125678 62.5951035,47.1057125 L62.5921694,47.1054239 Z" id="Shape"></path>
            </g>
            <g id="London_Drugs_Logo" transform="translate(585.000000, 5.000000)"></g>
            <g id="Group" transform="translate(585.000000, 5.000000)">
                <rect id="Rectangle-path" x="0.5453" y="0.0169047619" width="166.9995" height="69.4819524"></rect>
                <rect id="Rectangle-path" fill="#545454" fill-rule="nonzero" x="1.1811" y="0.51052381" width="166.2651" height="68.085619"></rect>
                <rect id="Rectangle-path" fill="#545454" fill-rule="nonzero" x="3.2857" y="2.56952381" width="161.9845" height="63.967619"></rect>
                <rect id="Rectangle-path" fill="#545454" fill-rule="nonzero" x="5.6402" y="4.87533333" width="157.2772" height="59.3543095"></rect>
                <path d="M142.4715,42.6219762 C141.9037,38.7592381 139.012,35.4915476 132.5503,35.4915476 C126.806,35.4915476 122.5594,37.9748571 122.5594,42.6963571 C122.5594,51.2805952 135.8007,48.9392857 135.8007,52.3117857 C135.8007,53.3750952 134.6226,54.0157857 132.6931,54.0157857 C131.9825,54.0157857 131.1223,53.7994048 130.5885,53.4444048 C129.951,53.0217857 129.5192,52.4537857 129.3067,51.6372857 L122.0647,51.6372857 C122.2041,55.7164048 126.2025,59.1599048 132.2681,59.1599048 C138.6567,59.1599048 143.1158,56.6039048 143.1158,51.4242857 C143.1158,43.2643571 129.8048,45.3588571 129.8048,41.9880476 C129.8048,41.2053571 130.5885,40.7117381 132.195,40.7117381 C132.9821,40.7117381 133.623,40.8503571 134.1976,41.1360476 C134.7654,41.4217381 135.1564,41.8460476 135.2261,42.6236667 L142.4715,42.6219762 Z M120.5262,46.2091667 L110.1817,46.2091667 L110.1817,51.0692857 L113.5018,51.0692857 C113.07,52.6634048 111.183,53.6607857 109.6105,53.6607857 C105.7923,53.6607857 104.7961,50.7819048 104.7961,47.6291667 C104.7961,43.6514762 106.1476,40.9923571 109.1804,40.9923571 C111.1082,40.9923571 112.5362,42.0556667 113.0003,43.8644762 L120.2406,43.8644762 C119.2444,38.3315476 114.855,35.4915476 109.2552,35.4915476 C101.8313,35.4915476 97.2294,40.4243571 97.2294,47.6291667 C97.2294,55.5034048 102.4756,59.1582143 108.4324,59.1582143 C112.0347,59.1582143 114.0713,57.8785238 115.3548,56.4247143 L115.6438,58.6612143 L120.5279,58.6612143 L120.5279,46.2091667 L120.5262,46.2091667 Z M73.5008,48.7972857 C73.5008,56.5329048 77.4992,59.1582143 84.561,59.1582143 C92.1974,59.1582143 95.6603,56.0020952 95.6603,48.7972857 L95.6603,36.1322381 L88.0936,36.1322381 L88.0936,49.5799762 C88.0936,51.9905952 87.3099,53.6607857 84.561,53.6607857 C81.5282,53.6607857 81.0318,51.7792857 81.0318,49.5799762 L81.0318,36.1322381 L73.5008,36.1322381 L73.5008,48.7972857 Z M60.6964,50.7819048 C64.2256,50.7819048 64.7254,51.7099762 64.7254,54.6514048 C64.7254,56.6022143 64.9379,58.0949048 65.1555,58.5868333 L72.8276,58.5868333 L72.8276,57.8785238 C71.896,57.8785238 71.9708,56.8879048 71.9708,53.9414048 C71.9708,49.4379762 70.5445,48.8699762 68.0812,48.0179762 C70.757,47.2741667 71.9708,45.0697857 71.9708,42.5543571 C71.9708,38.1878571 69.3987,36.1322381 61.7674,36.1322381 L50.884,36.1322381 L50.884,58.5868333 L58.4456,58.5868333 L58.4456,50.7819048 L60.6964,50.7819048 Z M58.4456,41.3456667 L61.9051,41.3456667 C63.6884,41.3456667 64.9379,42.1300476 64.9379,43.6514762 C64.9379,45.2827857 63.7632,45.8541667 61.4087,45.8541667 L58.4456,45.8541667 L58.4456,41.3456667 Z M36.6465,58.5868333 C44.0653,58.5868333 48.8814,55.3597143 48.8814,46.9191667 C48.8814,39.5030476 44.2829,36.1322381 36.859,36.1322381 L26.727,36.1322381 L26.727,58.5868333 L36.6465,58.5868333 Z M34.2937,41.3456667 L35.72,41.3456667 C39.749,41.3456667 41.3198,42.6219762 41.3198,47.2741667 C41.3198,51.5662857 39.392,53.3040952 35.8594,53.3040952 L34.2937,53.3040952 L34.2937,41.3456667 Z" id="Shape" fill="#FFFFFF"></path>
                <path d="M139.4387,10.0211429 L132.4092,10.0211429 L132.4092,31.9787381 L139.5475,31.9787381 L139.5475,25.0258095 L139.2959,20.025381 L147.3573,31.9804286 L154.2797,31.9804286 L154.2797,10.0211429 L147.2179,10.0211429 L147.2179,16.9740714 L147.5018,21.9761905 L139.4387,10.0211429 Z M118.6732,9.38045238 C111.6777,9.38045238 106.7902,13.883881 106.7902,20.803 C106.7902,28.3273095 111.608,32.550119 118.6732,32.550119 C125.4137,32.550119 130.5868,28.3949286 130.5868,20.8756905 C130.5868,15.090881 126.806,9.38045238 118.6732,9.38045238 Z M118.6018,14.8102619 C121.9219,14.6682619 123.134,17.895381 123.134,20.8756905 C123.134,24.527119 121.9219,27.1879286 118.6749,27.1879286 C115.1423,27.1879286 114.2158,23.6785 114.2158,20.8756905 C114.2158,18.1066905 115.2851,14.8102619 118.6018,14.8102619 Z M92.9131,31.9787381 C100.1908,31.9787381 104.9389,28.8243095 104.9389,20.5206905 C104.9389,13.2482619 100.4033,10.0211429 93.0559,10.0211429 L83.1347,10.0211429 L83.1347,31.9787381 L92.9131,31.9787381 Z M90.5909,15.1652619 L91.9832,15.1652619 C95.9425,15.1652619 97.5133,16.3671905 97.5133,20.945 C97.5133,25.1001905 95.5872,26.8329286 92.1277,26.8329286 L90.5909,26.8329286 L90.5909,15.1652619 Z M65.8695,10.0211429 L58.9471,10.0211429 L58.9471,31.9787381 L66.0089,31.9787381 L66.0089,25.0258095 L65.7267,20.025381 L73.8578,31.9804286 L80.8159,31.9804286 L80.8159,10.0211429 L73.6453,10.0211429 L73.6453,16.9740714 L73.9326,21.9761905 L65.8695,10.0211429 Z M45.4933,9.38045238 C38.4655,9.38045238 33.5797,13.883881 33.5797,20.803 C33.5797,28.3273095 38.3958,32.550119 45.4933,32.550119 C52.2032,32.550119 57.3763,28.3949286 57.3763,20.8756905 C57.3763,15.090881 53.6295,9.38045238 45.4933,9.38045238 Z M45.4236,14.8102619 C48.7437,14.6682619 49.9541,17.895381 49.9541,20.8756905 C49.9541,24.527119 48.7454,27.1879286 45.4933,27.1879286 C41.9641,27.1879286 41.0325,23.6785 41.0325,20.8756905 C41.0325,18.1066905 42.1018,14.8102619 45.4236,14.8102619 Z M33.2924,31.9787381 L33.2924,26.834619 L23.123,26.834619 L23.123,10.0211429 L15.6651,10.0211429 L15.6651,31.9787381 L33.2924,31.9787381 Z" id="Shape" fill="#FFFFFF"></path>
                <path d="M146.7878,39.0398571 L146.7878,38.0492381 L147.6446,38.0492381 C148.0033,38.0492381 148.5048,38.0492381 148.5048,38.5073571 C148.5048,38.9705476 148.2158,39.0381667 147.8248,39.0381667 L146.7878,39.0398571 Z M148.2141,39.5385476 C148.821,39.5030476 149.1406,39.2528571 149.1406,38.6155476 C149.1406,38.2284286 149.0709,37.9055476 148.7496,37.6942381 C148.5031,37.5522381 148.073,37.5184286 147.7908,37.5184286 L146.0738,37.5184286 L146.0738,41.0261667 L146.7878,41.0261667 L146.7878,39.5385476 L147.4644,39.5385476 L148.2481,41.0261667 L149.0709,41.0261667 L148.2141,39.5385476 Z M147.4321,41.9119762 C145.9718,41.9119762 144.7563,40.7455476 144.7563,39.2528571 C144.7563,37.8328571 145.9718,36.6309286 147.4321,36.6309286 C148.8924,36.6309286 150.0756,37.8328571 150.0756,39.2528571 C150.0739,40.7455476 148.8924,41.9119762 147.4321,41.9119762 Z M147.4321,42.5543571 C149.2511,42.5543571 150.7131,41.0650476 150.7131,39.2528571 C150.7131,37.4778571 149.2528,35.9902381 147.4321,35.9902381 C145.6114,35.9902381 144.1477,37.4778571 144.1477,39.2528571 C144.1477,41.0650476 145.6114,42.5543571 147.4321,42.5543571 Z" id="Shape" fill="#FFFFFF"></path>
            </g>
            <g id="Teva_logo" transform="translate(189.000000, 9.000000)">
                <path d="M150.123386,42.6469661 L150.123386,10.2216181 L150.123386,42.6469661 Z M108.37368,32.426517 L108.37368,0 L108.37368,32.426517 Z M64.8554051,29.2538876 L88.9147371,29.2538876 L64.8554051,29.2538876 Z M64.8554051,13.0423826 L88.9147371,13.0423826 L64.8554051,13.0423826 Z M121.149149,43 L142.077399,3.55271368e-15 L121.149149,43 Z M88.9147371,3.55271368e-15 L88.9147371,42.6469661 L88.9147371,3.55271368e-15 Z M4,0 L4,15.5089441 L17.7976472,15.5089441 L17.7976472,42.6469661 L171,42.6469661 L171,0 L4,0 Z" id="path4284" stroke="#545454" stroke-width="4.03999996"></path>
                <g id="g4286" transform="translate(0.000000, 52.000000)" fill="#545454" fill-rule="nonzero">
                    <polygon id="path4288" points="2.72742857 1.508625 0.658748299 1.508625 0.658748299 0.711 5.69238095 0.711 5.69238095 1.508625 3.61434014 1.508625 3.61434014 7.977375 2.72742857 7.977375"></polygon>
                    <polygon id="path4290" points="9.84144218 4.570875 7.20878912 4.570875 7.20878912 7.189875 10.1550204 7.189875 10.1550204 7.977375 6.32070748 7.977375 6.32070748 0.712125 10.0029116 0.712125 10.0029116 1.4985 7.20878912 1.4985 7.20878912 3.794625 9.84144218 3.794625"></polygon>
                    <path d="M12.6694966,7.97625 L10.440517,0.711 L11.3988027,0.711 L12.4577143,4.289625 C12.7408707,5.270625 12.9924354,6.154875 13.1843265,7.0065 L13.2053878,7.0065 C13.3972789,6.165 13.6687347,5.24925 13.9823129,4.300875 L15.1324898,0.711 L16.0708844,0.711 L13.639483,7.97625 L12.6694966,7.97625 Z" id="path4292"></path>
                    <path d="M17.4129524,5.691375 L16.7062313,7.977375 L15.7982585,7.977375 L18.1185034,0.712125 L19.1680544,0.712125 L21.4882993,7.977375 L20.5499048,7.977375 L19.8232925,5.691375 L17.4129524,5.691375 Z M19.6524626,4.957875 L18.9761633,2.8665 C18.8252245,2.39175 18.7245986,1.960875 18.6228027,1.540125 L18.6040816,1.540125 C18.5034558,1.960875 18.4028299,2.413125 18.2612517,2.85525 L17.595483,4.957875 L19.6524626,4.957875 Z" id="path4294"></path>
                    <path d="M24.388898,0.7965 C24.8124626,0.721125 25.3670748,0.655875 26.0726259,0.655875 C26.9408163,0.655875 27.5761633,0.87075 27.9786667,1.26 C28.3425578,1.605375 28.5742313,2.133 28.5742313,2.779875 C28.5742313,3.436875 28.3928707,3.954375 28.0500408,4.332375 C27.5761633,4.86 26.8296599,5.13 25.972,5.13 C25.7099048,5.13 25.4677007,5.11875 25.2652789,5.06475 L25.2652789,7.975125 L24.3877279,7.975125 L24.3877279,0.7965 L24.388898,0.7965 Z M25.266449,4.300875 C25.4583401,4.354875 25.7005442,4.37625 25.9930612,4.37625 C27.0519728,4.37625 27.6978503,3.816 27.6978503,2.835 C27.6978503,1.86525 27.0519728,1.40175 26.0936871,1.40175 C25.7099048,1.40175 25.4173878,1.434375 25.266449,1.477125 L25.266449,4.300875 Z" id="path4296"></path>
                    <polygon id="path4298" points="30.5153741 0.711 30.5153741 3.75075 33.8044354 3.75075 33.8044354 0.711 34.692517 0.711 34.692517 7.97625 33.8044354 7.97625 33.8044354 4.56975 30.5153741 4.56975 30.5153741 7.97625 29.6272925 7.97625 29.6272925 0.711"></polygon>
                    <path d="M37.1976327,5.691375 L36.4909116,7.977375 L35.5829388,7.977375 L37.9031837,0.712125 L38.9527347,0.712125 L41.2729796,7.977375 L40.334585,7.977375 L39.6079728,5.691375 L37.1976327,5.691375 Z M39.4371429,4.957875 L38.7608435,2.8665 C38.6099048,2.39175 38.5092789,1.960875 38.407483,1.540125 L38.3875918,1.540125 C38.286966,1.960875 38.1863401,2.413125 38.0447619,2.85525 L37.3789932,4.957875 L39.4371429,4.957875 Z" id="path4300"></path>
                    <path d="M42.1540408,0.80775 C42.5974966,0.721125 43.2433741,0.657 43.8377687,0.657 C44.7761633,0.657 45.391619,0.8505 45.8046531,1.249875 C46.1381224,1.573875 46.3393741,2.068875 46.3393741,2.640375 C46.3393741,3.58875 45.7742313,4.2255 45.0686803,4.483125 L45.0686803,4.51575 C45.5823401,4.710375 45.8959184,5.227875 46.0573878,5.981625 C46.2785306,6.99525 46.4411701,7.696125 46.5815782,7.97625 L45.6736054,7.97625 C45.562449,7.76025 45.4115102,7.146 45.2301497,6.240375 C45.028898,5.238 44.6556463,4.86 43.8588299,4.8285 L43.0315918,4.8285 L43.0315918,7.97625 L42.1540408,7.97625 L42.1540408,0.80775 Z M43.0315918,4.1175 L43.929034,4.1175 C44.8674286,4.1175 45.4629932,3.567375 45.4629932,2.737125 C45.4629932,1.8 44.8276463,1.389375 43.8997823,1.389375 C43.4762177,1.389375 43.1837007,1.422 43.0327619,1.46475 L43.0327619,4.1175 L43.0315918,4.1175 Z" id="path4302"></path>
                    <path d="M53.1936327,4.78575 C53.1433197,3.772125 53.0824762,2.543625 53.0824762,1.648125 L53.062585,1.648125 C52.820381,2.489625 52.5489252,3.405375 52.2049252,4.40775 L51.0044354,7.932375 L50.3386667,7.932375 L49.2294422,4.471875 C48.9065034,3.436875 48.6444082,2.509875 48.452517,1.647 L48.4326259,1.647 C48.4127347,2.552625 48.3612517,3.75975 48.3015782,4.858875 L48.1202177,7.975125 L47.282449,7.975125 L47.7563265,0.709875 L48.8760816,0.709875 L50.035619,4.224375 C50.3187755,5.11875 50.5399184,5.916375 50.7212789,6.67125 L50.7411701,6.67125 C50.9225306,5.938875 51.1647347,5.14125 51.4677823,4.224375 L52.6788027,0.709875 L53.7985578,0.709875 L54.2221224,7.975125 L53.355102,7.975125 L53.1936327,4.78575 Z" id="path4304"></path>
                    <path d="M56.5564082,5.691375 L55.8496871,7.977375 L54.9417143,7.977375 L57.2619592,0.712125 L58.3115102,0.712125 L60.6317551,7.977375 L59.6933605,7.977375 L58.9667483,5.691375 L56.5564082,5.691375 Z M58.7959184,4.957875 L58.119619,2.8665 C57.9686803,2.39175 57.8680544,1.960875 57.7662585,1.540125 L57.7463673,1.540125 C57.6457415,1.960875 57.5451156,2.413125 57.4035374,2.85525 L56.7377687,4.957875 L58.7959184,4.957875 Z" id="path4306"></path>
                    <path d="M66.255102,7.750125 C65.9426939,7.92225 65.2862857,8.0955 64.4602177,8.0955 C62.5436463,8.0955 61.111483,6.80175 61.111483,4.408875 C61.111483,2.124 62.5530068,0.592875 64.6626395,0.592875 C65.4992381,0.592875 66.0444898,0.786375 66.2761633,0.916875 L66.0538503,1.681875 C65.7309116,1.50975 65.257034,1.37925 64.6918912,1.37925 C63.0982585,1.37925 62.0381769,2.46825 62.0381769,4.37625 C62.0381769,6.166125 62.9964626,7.297875 64.6404082,7.297875 C65.1856599,7.297875 65.7297415,7.17975 66.083102,6.99525 L66.255102,7.750125 Z" id="path4308"></path>
                    <polygon id="path4310" points="70.7575238 4.570875 68.1248707 4.570875 68.1248707 7.189875 71.071102 7.189875 71.071102 7.977375 67.2379592 7.977375 67.2379592 0.712125 70.9201633 0.712125 70.9201633 1.4985 68.1260408 1.4985 68.1260408 3.794625 70.7586939 3.794625 70.7586939 4.570875"></polygon>
                    <path d="M72.9701224,0.711 L72.9701224,5.023125 C72.9701224,6.640875 73.6464218,7.3305 74.5543946,7.3305 C75.5536327,7.3305 76.2088707,6.618375 76.2088707,5.023125 L76.2088707,0.711 L77.0957823,0.711 L77.0957823,4.957875 C77.0957823,7.18875 75.9970884,8.0955 74.5239728,8.0955 C73.1315918,8.0955 72.0832109,7.254 72.0832109,4.9905 L72.0832109,0.711 L72.9701224,0.711 Z" id="path4312"></path>
                    <polygon id="path4314" points="79.7927891 1.508625 77.7241088 1.508625 77.7241088 0.711 82.7577415 0.711 82.7577415 1.508625 80.6797007 1.508625 80.6797007 7.977375 79.791619 7.977375 79.791619 1.508625"></polygon>
                    <polygon id="path4316" points="84.2753197 0.711 84.2753197 7.97625 83.3872381 7.97625 83.3872381 0.711"></polygon>
                    <path d="M90.4298776,7.750125 C90.1174694,7.92225 89.4610612,8.0955 88.6338231,8.0955 C86.7172517,8.0955 85.2850884,6.80175 85.2850884,4.408875 C85.2850884,2.124 86.7266122,0.592875 88.8362449,0.592875 C89.6728435,0.592875 90.2180952,0.786375 90.4497687,0.916875 L90.2274558,1.681875 C89.904517,1.50975 89.4306395,1.37925 88.8654966,1.37925 C87.2718639,1.37925 86.2117823,2.46825 86.2117823,4.37625 C86.2117823,6.166125 87.170068,7.297875 88.8140136,7.297875 C89.3592653,7.297875 89.9033469,7.17975 90.2567075,6.99525 L90.4298776,7.750125 Z" id="path4318"></path>
                    <path d="M92.5207891,5.691375 L91.8152381,7.97625 L90.9072653,7.97625 L93.2275102,0.711 L94.2770612,0.711 L96.5973061,7.97625 L95.6589116,7.97625 L94.9322993,5.69025 L92.5207891,5.69025 L92.5207891,5.691375 Z M94.7602993,4.957875 L94.084,2.8665 C93.9330612,2.39175 93.8324354,1.960875 93.7306395,1.540125 L93.7107483,1.540125 C93.6101224,1.960875 93.5094966,2.413125 93.3679184,2.85525 L92.7021497,4.957875 L94.7602993,4.957875 Z" id="path4320"></path>
                    <polygon id="path4322" points="97.4678367 0.711 98.3559184 0.711 98.3559184 7.189875 101.261197 7.189875 101.261197 7.977375 97.4678367 7.977375 97.4678367 0.711"></polygon>
                    <polygon id="path4324" points="105.017116 0.711 105.017116 7.97625 104.129034 7.97625 104.129034 0.711"></polygon>
                    <path d="M106.430558,7.97625 L106.430558,0.711 L107.399374,0.711 L109.56868,4.3875 C110.062449,5.239125 110.466122,6.00525 110.779701,6.748875 L110.810122,6.737625 C110.729388,5.767875 110.709497,4.883625 110.709497,3.751875 L110.709497,0.712125 L111.536735,0.712125 L111.536735,7.977375 L110.648653,7.977375 L108.489878,4.29075 C108.016,3.481875 107.562014,2.651625 107.228544,1.86525 L107.198122,1.875375 C107.248435,2.791125 107.258966,3.66525 107.258966,4.872375 L107.258966,7.977375 L106.430558,7.977375 L106.430558,7.97625 Z" id="path4326"></path>
                    <path d="M112.951347,0.819 C113.486068,0.72225 114.121415,0.657 114.817605,0.657 C116.078939,0.657 116.976381,0.979875 117.571946,1.562625 C118.187401,2.1555 118.540762,2.995875 118.540762,4.1715 C118.540762,5.35725 118.187401,6.328125 117.562585,6.996375 C116.916707,7.675875 115.868327,8.042625 114.54615,8.042625 C113.910803,8.042625 113.395973,8.01 112.952517,7.956 L112.952517,0.819 L112.951347,0.819 Z M113.828898,7.24275 C114.050041,7.275375 114.37298,7.286625 114.71698,7.286625 C116.603129,7.286625 117.611728,6.165 117.611728,4.203 C117.622259,2.489625 116.714286,1.400625 114.857388,1.400625 C114.403401,1.400625 114.060571,1.443375 113.828898,1.497375 L113.828898,7.24275 Z" id="path4328"></path>
                    <path d="M120.430422,0.711 L120.430422,5.023125 C120.430422,6.640875 121.106721,7.3305 122.014694,7.3305 C123.013932,7.3305 123.66917,6.618375 123.66917,5.023125 L123.66917,0.711 L124.556082,0.711 L124.556082,4.957875 C124.556082,7.18875 123.457388,8.0955 121.984272,8.0955 C120.591891,8.0955 119.54351,7.254 119.54351,4.9905 L119.54351,0.711 L120.430422,0.711 Z" id="path4330"></path>
                    <path d="M125.852517,6.834375 C126.24566,7.10325 126.810803,7.308 127.415728,7.308 C128.31434,7.308 128.838531,6.80175 128.838531,6.06825 C128.838531,5.4 128.474639,5.000625 127.557306,4.635 C126.446912,4.204125 125.761252,3.578625 125.761252,2.565 C125.761252,1.43325 126.638803,0.592875 127.95981,0.592875 C128.645469,0.592875 129.160299,0.765 129.452816,0.948375 L129.210612,1.713375 C128.99883,1.57275 128.544844,1.368 127.929388,1.368 C127.001524,1.368 126.648163,1.960875 126.648163,2.457 C126.648163,3.1365 127.062367,3.470625 127.999592,3.85875 C129.149769,4.3335 129.725442,4.926375 129.725442,5.992875 C129.725442,7.1145 128.959048,8.0955 127.354884,8.0955 C126.699646,8.0955 125.983565,7.8795 125.620844,7.62075 L125.852517,6.834375 Z" id="path4332"></path>
                    <polygon id="path4334" points="132.108871 1.508625 130.04019 1.508625 130.04019 0.711 135.073823 0.711 135.073823 1.508625 132.995782 1.508625 132.995782 7.977375 132.107701 7.977375 132.107701 1.508625"></polygon>
                    <path d="M135.71268,0.80775 C136.156136,0.721125 136.802014,0.657 137.396408,0.657 C138.334803,0.657 138.950259,0.8505 139.363293,1.249875 C139.696762,1.573875 139.898014,2.068875 139.898014,2.640375 C139.898014,3.58875 139.332871,4.2255 138.62732,4.483125 L138.62732,4.51575 C139.14098,4.710375 139.454558,5.227875 139.616027,5.981625 C139.83717,6.99525 139.99981,7.696125 140.140218,7.97625 L139.232245,7.97625 C139.121088,7.76025 138.97015,7.146 138.788789,6.240375 C138.587537,5.238 138.214286,4.86 137.417469,4.8285 L136.590231,4.8285 L136.590231,7.97625 L135.71268,7.97625 L135.71268,0.80775 Z M136.590231,4.1175 L137.487673,4.1175 C138.426068,4.1175 139.021633,3.567375 139.021633,2.737125 C139.021633,1.8 138.386286,1.389375 137.458422,1.389375 C137.034857,1.389375 136.74234,1.422 136.591401,1.46475 L136.591401,4.1175 L136.590231,4.1175 Z" id="path4336"></path>
                    <polygon id="path4338" points="141.9 0.711 141.9 7.97625 141.011918 7.97625 141.011918 0.711"></polygon>
                    <polygon id="path4340" points="146.823646 4.570875 144.190993 4.570875 144.190993 7.189875 147.137224 7.189875 147.137224 7.977375 143.304082 7.977375 143.304082 0.712125 146.986286 0.712125 146.986286 1.4985 144.192163 1.4985 144.192163 3.794625 146.824816 3.794625 146.824816 4.570875"></polygon>
                    <path d="M148.047537,6.834375 C148.44068,7.10325 149.005823,7.308 149.610748,7.308 C150.509361,7.308 151.033551,6.80175 151.033551,6.06825 C151.033551,5.4 150.66966,5.000625 149.752327,4.635 C148.641932,4.204125 147.956272,3.578625 147.956272,2.565 C147.956272,1.43325 148.833823,0.592875 150.15483,0.592875 C150.84049,0.592875 151.35532,0.765 151.647837,0.948375 L151.405633,1.713375 C151.19385,1.57275 150.739864,1.368 150.124408,1.368 C149.196544,1.368 148.843184,1.960875 148.843184,2.457 C148.843184,3.1365 149.257388,3.470625 150.194612,3.85875 C151.344789,4.3335 151.920463,4.926375 151.920463,5.992875 C151.920463,7.1145 151.154068,8.0955 149.549905,8.0955 C148.894667,8.0955 148.178585,7.8795 147.815864,7.62075 L148.047537,6.834375 Z" id="path4342"></path>
                    <polygon id="path4344" points="155.022313 0.711 155.910395 0.711 155.910395 7.189875 158.815673 7.189875 158.815673 7.977375 155.022313 7.977375 155.022313 0.711"></polygon>
                    <polygon id="path4346" points="160.361333 1.508625 158.292653 1.508625 158.292653 0.711 163.326286 0.711 163.326286 1.508625 161.248245 1.508625 161.248245 7.977375 160.360163 7.977375 160.360163 1.508625"></polygon>
                    <path d="M163.965143,0.819 C164.499864,0.72225 165.135211,0.657 165.831401,0.657 C167.092735,0.657 167.990177,0.979875 168.585741,1.562625 C169.201197,2.1555 169.554558,2.995875 169.554558,4.1715 C169.554558,5.35725 169.201197,6.328125 168.576381,6.996375 C167.930503,7.675875 166.882122,8.042625 165.559946,8.042625 C164.924599,8.042625 164.409769,8.01 163.966313,7.956 L163.966313,0.819 L163.965143,0.819 Z M164.842694,7.24275 C165.063837,7.275375 165.386776,7.286625 165.730776,7.286625 C167.616925,7.286625 168.625524,6.165 168.625524,4.203 C168.636054,2.489625 167.728082,1.400625 165.871184,1.400625 C165.417197,1.400625 165.074367,1.443375 164.842694,1.497375 L164.842694,7.24275 Z" id="path4348"></path>
                    <path d="M170.324463,7.416 C170.324463,7.027875 170.577197,6.7365 170.930558,6.7365 C171.282748,6.7365 171.524952,7.016625 171.524952,7.416 C171.524952,7.804125 171.282748,8.0955 170.909497,8.0955 C170.566667,8.0955 170.324463,7.804125 170.324463,7.416 Z" id="path4350"></path>
                </g>
            </g>
        </g>
    </g>
</svg>